<svg width="119" height="31" viewBox="0 0 119 31" fill="none" xmlns="http://www.w3.org/2000/svg">
<path d="M14.242 15.361L0 0.03125H13.2926L27.8511 15.361L13.2926 30.6908H0L14.242 15.361Z" fill="#222222"/>
<path d="M14.242 15.361L0 0.03125H13.2926L27.8511 15.361L13.2926 30.6908H0L14.242 15.361Z" fill="#F8F8F8"/>
<path d="M37.0311 15.361L22.7891 0.03125H36.0816L50.6401 15.361L36.0816 30.6908H22.7891L37.0311 15.361Z" fill="#222222"/>
<path d="M37.0311 15.361L22.7891 0.03125H36.0816L50.6401 15.361L36.0816 30.6908H22.7891L37.0311 15.361Z" fill="#F8F8F8"/>
<path d="M59.8201 15.361L45.5781 0.03125H58.8707L73.4292 15.361L58.8707 30.6908H45.5781L59.8201 15.361Z" fill="#222222"/>
<path d="M59.8201 15.361L45.5781 0.03125H58.8707L73.4292 15.361L58.8707 30.6908H45.5781L59.8201 15.361Z" fill="#F8F8F8"/>
<path d="M82.6092 15.361L68.3672 0.03125H81.6597L96.2182 15.361L81.6597 30.6908H68.3672L82.6092 15.361Z" fill="#222222"/>
<path d="M82.6092 15.361L68.3672 0.03125H81.6597L96.2182 15.361L81.6597 30.6908H68.3672L82.6092 15.361Z" fill="#F8F8F8"/>
<path d="M105.383 15.361L91.1406 0.03125H104.433L118.992 15.361L104.433 30.6908H91.1406L105.383 15.361Z" fill="#222222"/>
<path d="M105.383 15.361L91.1406 0.03125H104.433L118.992 15.361L104.433 30.6908H91.1406L105.383 15.361Z" fill="#F8F8F8"/>
</svg>
