<svg width="621" height="957" viewBox="0 0 621 957" fill="none" xmlns="http://www.w3.org/2000/svg">
<path d="M608.568 128.517L477.794 479.821H364.281L397.023 391.846H145.017L71.1454 590.274L0 476.455L114.862 167.866L90.2705 128.517H243.035L182.725 290.531H433.146L434.147 292.117L434.731 290.531L480.395 167.866L455.804 128.517H608.568Z" fill="#341657" fill-opacity="0.44"/>
<path d="M608.568 128.517L477.794 479.821H364.281L397.023 391.846H145.017L71.1454 590.274L0 476.455L114.862 167.866L90.2705 128.517H243.035L182.725 290.531H433.146L434.147 292.117L434.731 290.531L480.395 167.866L455.804 128.517H608.568Z" fill="#4F2184"/>
<path d="M621 590.996H135.069L200.623 414.906H314.136L281.394 502.868H526.863L541.44 463.727L621 590.996Z" fill="#341657" fill-opacity="0.44"/>
<path d="M621 590.996H135.069L200.623 414.906H314.136L281.394 502.868H526.863L541.44 463.727L621 590.996Z" fill="#4F2184"/>
<path d="M427.83 614.056L300.255 956.778L229.109 842.959L314.317 614.056H427.83Z" fill="#341657" fill-opacity="0.44"/>
<path d="M427.83 614.056L300.255 956.778L229.109 842.959L314.317 614.056H427.83Z" fill="#4F2184"/>
<path d="M468.565 0L368.99 267.487H255.477L340.406 39.3351L315.815 0H468.565Z" fill="#341657" fill-opacity="0.44"/>
<path d="M468.565 0L368.99 267.487H255.477L340.406 39.3351L315.815 0H468.565Z" fill="#4F2184"/>
</svg>
