<svg width="11" height="16" viewBox="0 0 11 16" fill="none" xmlns="http://www.w3.org/2000/svg">
<path d="M10.177 2.14844L9.31196 4.47236L9.22357 4.70984L9.16845 4.85778L8.85141 5.70956L8.53763 6.55205L8.44994 6.78767L8.39412 6.9377L7.99009 8.02325H6.09183L6.49586 6.9377L6.63937 6.55205H2.4251L2.28135 6.9377L1.87733 8.02325L1.73381 8.40867L1.18976 9.87034L0.276098 8.40867L0.0351228 8.02325L0 7.96696L0.383094 6.9377L0.526609 6.55205L1.15742 4.85778L1.30071 4.47236L1.92082 2.80647L1.50958 2.14844H4.06424L3.1992 4.47236L3.11081 4.70961L3.05568 4.85778H7.24344L7.26019 4.8843L7.26995 4.85778L7.41347 4.47236L7.66142 3.80619L8.03359 2.80647L7.62235 2.14844H10.177Z" fill="#E697F6"/>
<path d="M10.177 2.14844L9.31196 4.47236L9.22357 4.70984L9.16845 4.85778L8.85141 5.70956L8.53763 6.55205L8.44994 6.78767L8.39412 6.9377L7.99009 8.02325H6.09183L6.49586 6.9377L6.63937 6.55205H2.4251L2.28135 6.9377L1.87733 8.02325L1.73381 8.40867L1.18976 9.87034L0.276098 8.40867L0.0351228 8.02325L0 7.96696L0.383094 6.9377L0.526609 6.55205L1.15742 4.85778L1.30071 4.47236L1.92082 2.80647L1.50958 2.14844H4.06424L3.1992 4.47236L3.11081 4.70961L3.05568 4.85778H7.24344L7.26019 4.8843L7.26995 4.85778L7.41347 4.47236L7.66142 3.80619L8.03359 2.80647L7.62235 2.14844H10.177Z" fill="#6329A8"/>
<path d="M10.384 9.88223H2.25781L2.80652 8.40847L2.95003 8.02305L3.35406 6.9375H5.25232L4.97274 7.6888L4.84829 8.02305L4.70478 8.40847H8.80973L8.95324 8.02305L9.05349 7.75393L9.22167 8.02305L9.46264 8.40847L10.384 9.88223Z" fill="#E697F6"/>
<path d="M10.384 9.88223H2.25781L2.80652 8.40847L2.95003 8.02305L3.35406 6.9375H5.25232L4.97274 7.6888L4.84829 8.02305L4.70478 8.40847H8.80973L8.95324 8.02305L9.05349 7.75393L9.22167 8.02305L9.46264 8.40847L10.384 9.88223Z" fill="#6329A8"/>
<path d="M7.1513 10.2695L6.93894 10.8401L5.01788 16.0008L3.82812 14.0975L5.25304 10.2695H7.1513Z" fill="#E697F6"/>
<path d="M7.1513 10.2695L6.93894 10.8401L5.01788 16.0008L3.82812 14.0975L5.25304 10.2695H7.1513Z" fill="#6329A8"/>
<path d="M7.83689 0L7.25562 1.56122L7.03674 2.14924L6.88346 2.56117L6.48222 3.63928L6.1717 4.47316H4.27344L5.13848 2.14924L5.29223 1.73614L5.6937 0.657797L5.28246 0H7.83689Z" fill="#E697F6"/>
<path d="M7.83689 0L7.25562 1.56122L7.03674 2.14924L6.88346 2.56117L6.48222 3.63928L6.1717 4.47316H4.27344L5.13848 2.14924L5.29223 1.73614L5.6937 0.657797L5.28246 0H7.83689Z" fill="#6329A8"/>
</svg>
