<svg width="59" height="73" viewBox="0 0 59 73" fill="none" xmlns="http://www.w3.org/2000/svg">
<path fill-rule="evenodd" clip-rule="evenodd" d="M31.4583 50.8466C40.1904 54.34 40.9637 54.8101 46.2005 58.2397C43.2168 56.9455 37.5066 57.5606 37.5066 57.5606L36.3251 54.9321L34.614 53.5044C34.4253 58.6909 34.9705 63.9101 36.3637 66.1591C35.0409 65.3884 33.9053 64.7268 33.1129 63.8937C32.1816 59.1166 30.5903 56.8011 28.8261 56.661C27.062 56.521 23.9726 57.6142 23.9726 57.6142C23.9726 57.6142 25.05 57.7781 28.4939 58.5658C28.792 58.6925 29.0477 58.864 29.2692 59.0725C30.6129 60.3376 30.6975 62.9659 31.3447 65.2234C33.2549 66.4528 35.6488 67.7914 37.9179 68.7245C36.7855 69.413 36.6381 71.3072 39.1454 71.63C36.1798 69.466 42.0559 67.0143 43.5183 71.9696C43.8173 68.4521 40.8596 67.3017 40.3163 67.3351C40.4406 65.7442 42.9502 65.9009 43.5936 68.8014C43.6639 64.6434 39.8703 63.8103 38.8746 66.5354C37.9352 66.1413 36.5668 62.7227 37.1091 59.9246C37.5361 59.4869 38.0166 59.309 39.0819 59.2592C39.4013 60.4905 40.2072 62.4084 40.6169 62.9932C42.7946 64.9598 45.545 66.9582 48.3908 68.7021C47.276 68.9278 46.3541 70.4909 49.1019 71.4393C46.7145 68.5889 52.0004 68.7779 52.4396 73C53.1033 70.4265 51.7298 68.5366 50.6278 68.2384C50.8266 66.6731 53.2157 68.1577 53.2673 70.2179C53.7843 67.1335 50.8232 65.2582 49.3983 67.6066C48.1944 66.4298 46.4877 62.5429 46.3007 60.0269C47.2428 60.225 48.0515 60.422 48.5972 60.5679C49.9244 62.163 49.9311 63.1138 51.0431 63.4908C50.4045 62.3637 50.4245 61.2329 50.9211 60.767C52.2554 61.3121 53.7968 62.3234 53.2897 63.9127C54.7327 63.5621 55.17 62.0529 54.694 60.5445C54.218 59.0361 54.0262 58.9543 53.9409 57.4775C53.8555 56.0008 50.3589 53.8219 47.5969 51.7692C49.3254 49.1621 53.2577 46.9287 58.3356 46.2317C53.284 35.5564 35.1928 22.862 34.8825 22.6394L34.2843 18.7019C34.1698 17.9478 33.9403 17.6984 33.3825 17.1685C29.6846 13.6564 10.5486 1.6386 0.171875 0.296875C1.11171 1.73022 3.79887 4.24473 8.66928 6.86532C5.93337 6.17743 4.41732 5.83378 1.47292 5.70402C3.44317 8.38587 17.7344 22.1749 21.8332 24.621C21.65 25.653 21.964 29.9884 25.8973 33.7166L22.9443 32.3492C22.9539 33.444 24.6364 38.0906 29.5534 41.4364C22.7071 39.1405 16.7359 35.6293 16.7359 35.6293C17.2875 37.3014 18.3916 39.2265 19.7008 40.5874L24.8811 43.2827L21.0468 43.0897L24.512 48.8215C20.5219 49.288 15.2538 48.7927 12.6916 48.3307C13.2886 49.4011 14.1709 50.6855 15.156 51.5917C17.4427 51.8724 23.5323 51.4187 28.99 51.0378L25.8228 47.2138L35.4829 50.57L31.4583 50.8466ZM52.3385 58.2454C52.7381 57.8452 51.6358 56.3236 50.9591 55.8011V57.122L52.3385 58.2454ZM22.3348 56.628C25.253 55.872 28.1712 55.116 31.0894 54.36C26.352 54.7456 20.2411 54.7876 18.4893 54.5422C18.4893 54.5422 19.9514 55.5986 22.3348 56.628ZM42.7364 59.406C43.7025 59.487 43.2142 59.4574 44.1828 59.6245C44.4659 61.4117 45.2185 63.8175 46.3565 65.3106L43.658 62.8889C43.1758 61.9515 42.7977 60.2403 42.7364 59.406ZM10.5379 9.78087C12.2954 9.30975 26.6393 16.0534 31.221 19.8383C32.5586 30.129 35.6528 41.1947 37.0732 45.1613C35.1014 41.3964 33.9297 37.8491 31.958 34.0842C30.3466 33.3788 26.0995 29.4733 25.1068 25.5567C26.2624 26.489 28.1372 27.7968 30.2216 28.3159C30.016 27.1846 28.3931 23.3416 27.0006 22.2431C21.9966 18.6591 13.9495 13.8058 10.5379 9.78087ZM49.9619 47.6564C46.0038 43.0036 39.754 39.4463 38.3362 39.0041C37.9874 37.4981 37.6768 36.3277 37.3595 34.5839C39.8352 35.3421 44.495 37.704 46.3123 39.1869C45.7634 38.0934 40.3236 33.5624 36.6179 31.2325C36.1954 29.5428 35.7498 28.0516 35.2746 25.4956C38.3911 26.7532 54.1457 39.2359 55.6321 44.8299C53.2598 45.5699 51.2778 46.7217 49.9619 47.6564ZM49.3984 48.0745C47.8135 49.2767 47.0039 50.3424 46.4591 50.9342C46.4553 50.9382 43.054 48.3148 40.3772 46.4849C40.3772 46.4849 39.3026 44.5079 38.9636 41.7406C45.0786 43.4816 49.1349 47.9088 49.3984 48.0745ZM12.2609 26.1266C14.6811 27.9401 18.2681 30.0317 21.5139 31.8199C21.5505 33.9327 23.3981 37.1296 24.0105 37.7387C20.9529 36.632 15.5129 33.2963 15.5129 33.2963C13.7162 31.1913 12.3912 28.5299 12.2609 26.1266ZM20.2781 25.4312C15.9722 22.3545 10.1565 16.8937 5.96957 12.1798C6.11654 15.4238 8.68598 20.8125 10.262 22.7524C13.2031 25.0099 18.0334 28.5329 21.5926 30.3026C21.0358 29.3457 20.0022 27.128 20.2781 25.4312Z" fill="white"/>
<path d="M29.4087 12.5681C35.8458 12.3584 41.9414 14.6171 46.5445 18.536C51.4341 22.6987 54.7356 28.7267 55.2902 35.6331C55.392 36.9021 55.3973 38.1565 55.3127 39.3893L52.8471 36.5335C52.8355 36.3005 52.8208 36.0671 52.802 35.8329C52.3026 29.6133 49.3296 24.1849 44.9266 20.4364C41.6301 17.63 37.6154 15.7756 33.1536 15.2251C33.1167 15.2205 31.0171 13.4958 29.4087 12.5681ZM29.7566 62.729C23.809 62.6122 18.301 60.3965 14.0138 56.7466C9.12426 52.5839 5.82273 46.5559 5.26821 39.6495C4.80095 33.8298 6.18528 28.7969 9.37985 23.9322C10.0129 24.4484 10.3298 24.7664 11.2747 25.4313C11.1436 25.6333 10.9999 25.8548 10.9758 25.8942C8.58144 29.8216 7.36004 34.5139 7.75635 39.4497C8.25573 45.6693 11.2287 51.0977 15.6318 54.8462C19.3478 58.0098 24.0825 59.977 29.2085 60.2137C29.5598 61.0073 29.7138 61.8793 29.7566 62.729Z" fill="white"/>
</svg>
