<svg width="68" height="73" viewBox="0 0 68 73" fill="none" xmlns="http://www.w3.org/2000/svg">
<path d="M1.13372 38.3829V43.0319H0V36.9258H0.944769L7.25223 41.6094V36.9258H8.38595V43.0319H7.44118L1.13372 38.3829Z" fill="white"/>
<path d="M5.98312 48.7071C7.58501 48.7071 8.38595 49.1808 8.38595 50.1282V51.297C8.38595 52.2319 7.58501 52.6994 5.98312 52.6994H0.229752V51.7271H5.98312C6.7362 51.7271 7.11274 51.5837 7.11274 51.297V50.1282C7.11274 49.829 6.7362 49.6795 5.98312 49.6795H2.40282C0.800941 49.6795 0 49.2057 0 48.2583V47.5384C0 46.5909 0.800941 46.1172 2.40282 46.1172H7.96474V47.0896H2.40282C1.64975 47.0896 1.27321 47.2392 1.27321 47.5384V48.2583C1.27321 48.5575 1.64975 48.7071 2.40282 48.7071H5.98312Z" fill="white"/>
<path d="M0 62.8944V55.3477H1.42625V58.4135H3.89271L6.6916 55.3477H8.38595L5.02943 58.8638L8.37522 62.8944H6.70232L3.81764 59.5284H1.42625V62.8944H0Z" fill="white"/>
<path d="M7.01408 15.8811H8.38595V18.2992C8.38595 19.3326 7.52294 19.8493 5.79693 19.8493H2.58902C0.863007 19.8493 0 19.3257 0 18.2786V14.145C0 13.0978 0.863007 12.5742 2.58902 12.5742H8.27248V13.649H2.58902C1.77759 13.649 1.37187 13.8143 1.37187 14.145V18.2786C1.37187 18.6093 1.77759 18.7746 2.58902 18.7746H5.79693C6.60836 18.7746 7.01408 18.6161 7.01408 18.2992V15.8811Z" fill="white"/>
<path d="M1.54051 27.5717V31.0259H0V22.6406H8.38595V23.8794H1.54051V26.333H7.92264V27.5717H1.54051Z" fill="white"/>
<path fill-rule="evenodd" clip-rule="evenodd" d="M40.2865 50.8466C49.0185 54.34 49.7918 54.8101 55.0286 58.2397C52.0449 56.9455 46.3347 57.5606 46.3347 57.5606L45.1533 54.9321L43.4421 53.5044C43.2534 58.6909 43.7986 63.9101 45.1918 66.1591C43.869 65.3884 42.7334 64.7268 41.9411 63.8937C41.0097 59.1166 39.4184 56.8011 37.6543 56.661C35.8901 56.521 32.8007 57.6142 32.8007 57.6142C32.8007 57.6142 33.8781 57.7781 37.322 58.5658C37.6201 58.6925 37.8759 58.864 38.0974 59.0725C39.4411 60.3376 39.5256 62.9659 40.1729 65.2234C42.0831 66.4528 44.477 67.7914 46.746 68.7245C45.6136 69.413 45.4662 71.3072 47.9735 71.63C45.008 69.466 50.884 67.0143 52.3464 71.9696C52.6454 68.4521 49.6878 67.3017 49.1444 67.3351C49.2687 65.7442 51.7784 65.9009 52.4218 68.8014C52.492 64.6434 48.6984 63.8103 47.7027 66.5354C46.7633 66.1413 45.395 62.7227 45.9372 59.9246C46.3642 59.4869 46.8447 59.309 47.9101 59.2592C48.2294 60.4905 49.0353 62.4084 49.445 62.9932C51.6227 64.9598 54.3731 66.9582 57.2189 68.7021C56.1041 68.9278 55.1822 70.4909 57.93 71.4393C55.5426 68.5889 60.8285 68.7779 61.2677 73C61.9314 70.4265 60.5579 68.5366 59.4559 68.2384C59.6548 66.6731 62.0439 68.1577 62.0955 70.2179C62.6125 67.1335 59.6513 65.2582 58.2264 67.6066C57.0226 66.4298 55.3158 62.5429 55.1288 60.0269C56.0709 60.225 56.8796 60.422 57.4253 60.5679C58.7526 62.163 58.7593 63.1138 59.8712 63.4908C59.2326 62.3637 59.2527 61.2329 59.7492 60.767C61.0835 61.3121 62.6249 62.3234 62.1179 63.9127C63.5609 63.5621 63.9981 62.0529 63.5221 60.5445C63.0461 59.0361 62.8543 58.9543 62.769 57.4775C62.6836 56.0008 59.187 53.8219 56.425 51.7692C58.1535 49.1621 62.0858 46.9287 67.1637 46.2317C62.1121 35.5564 44.0209 22.862 43.7106 22.6394L43.1124 18.7019C42.9979 17.9478 42.7684 17.6984 42.2106 17.1685C38.5127 13.6564 19.3767 1.6386 9 0.296875C9.93984 1.73022 12.627 4.24473 17.4974 6.86532C14.7615 6.17743 13.2454 5.83378 10.301 5.70402C12.2713 8.38587 26.5625 22.1749 30.6614 24.621C30.4781 25.653 30.7921 29.9884 34.7254 33.7166L31.7724 32.3492C31.782 33.444 33.4645 38.0906 38.3815 41.4364C31.5352 39.1405 25.564 35.6293 25.564 35.6293C26.1157 37.3014 27.2197 39.2265 28.5289 40.5874L33.7092 43.2827L29.8749 43.0897L33.3401 48.8215C29.35 49.288 24.0819 48.7927 21.5198 48.3307C22.1167 49.4011 22.9991 50.6855 23.9841 51.5917C26.2708 51.8724 32.3604 51.4187 37.8181 51.0378L34.6509 47.2138L44.311 50.57L40.2865 50.8466ZM61.1667 58.2454C61.5662 57.8452 60.4639 56.3236 59.7872 55.8011V57.122L61.1667 58.2454ZM31.1629 56.628C34.0811 55.872 36.9993 55.116 39.9175 54.36C35.1802 54.7456 29.0692 54.7876 27.3174 54.5422C27.3174 54.5422 28.7795 55.5986 31.1629 56.628ZM51.5645 59.406C52.5306 59.487 52.0423 59.4574 53.0109 59.6245C53.294 61.4117 54.0466 63.8175 55.1846 65.3106L52.4861 62.8889C52.0039 61.9515 51.6258 60.2403 51.5645 59.406ZM19.366 9.78087C21.1235 9.30975 35.4674 16.0534 40.0492 19.8383C41.3867 30.129 44.4809 41.1947 45.9013 45.1613C43.9295 41.3964 42.7579 37.8491 40.7861 34.0842C39.1748 33.3788 34.9276 29.4733 33.9349 25.5567C35.0906 26.489 36.9654 27.7968 39.0497 28.3159C38.8441 27.1846 37.2212 23.3416 35.8287 22.2431C30.8247 18.6591 22.7776 13.8058 19.366 9.78087ZM58.79 47.6564C54.8319 43.0036 48.5821 39.4463 47.1643 39.0041C46.8155 37.4981 46.5049 36.3277 46.1877 34.5839C48.6633 35.3421 53.3231 37.704 55.1404 39.1869C54.5915 38.0934 49.1517 33.5624 45.446 31.2325C45.0235 29.5428 44.5779 28.0516 44.1028 25.4956C47.2192 26.7532 62.9738 39.2359 64.4602 44.8299C62.0879 45.5699 60.1059 46.7217 58.79 47.6564ZM58.2265 48.0745C56.6416 49.2767 55.832 50.3424 55.2872 50.9342C55.2835 50.9382 51.8821 48.3148 49.2053 46.4849C49.2053 46.4849 48.1308 44.5079 47.7917 41.7406C53.9067 43.4816 57.9631 47.9088 58.2265 48.0745ZM21.089 26.1266C23.5093 27.9401 27.0962 30.0317 30.342 31.8199C30.3786 33.9327 32.2263 37.1296 32.8386 37.7387C29.781 36.632 24.341 33.2963 24.341 33.2963C22.5443 31.1913 21.2194 28.5299 21.089 26.1266ZM29.1062 25.4312C24.8004 22.3545 18.9846 16.8937 14.7977 12.1798C14.9447 15.4238 17.5141 20.8125 19.0902 22.7524C22.0312 25.0099 26.8615 28.5329 30.4207 30.3026C29.864 29.3457 28.8303 27.128 29.1062 25.4312Z" fill="white"/>
<path d="M38.2368 12.5681C44.674 12.3584 50.7695 14.6171 55.3726 18.536C60.2622 22.6987 63.5637 28.7267 64.1183 35.6331C64.2202 36.9021 64.2254 38.1565 64.1409 39.3893L61.6752 36.5335C61.6636 36.3005 61.6489 36.0671 61.6301 35.8329C61.1308 29.6133 58.1577 24.1849 53.7547 20.4364C50.4583 17.63 46.4435 15.7756 41.9817 15.2251C41.9448 15.2205 39.8453 13.4958 38.2368 12.5681ZM38.5847 62.729C32.6372 62.6122 27.1291 60.3965 22.8419 56.7466C17.9524 52.5839 14.6509 46.5559 14.0963 39.6495C13.6291 33.8298 15.0134 28.7969 18.208 23.9322C18.841 24.4484 19.1579 24.7664 20.1028 25.4313C19.9718 25.6333 19.828 25.8548 19.804 25.8942C17.4096 29.8216 16.1882 34.5139 16.5845 39.4497C17.0839 45.6693 20.0569 51.0977 24.4599 54.8462C28.1759 58.0098 32.9106 59.977 38.0366 60.2137C38.3879 61.0073 38.5419 61.8793 38.5847 62.729Z" fill="white"/>
</svg>
