<svg width="230" height="31" viewBox="0 0 230 31" fill="none" xmlns="http://www.w3.org/2000/svg">
<mask id="mask0_1842_8185" style="mask-type:alpha" maskUnits="userSpaceOnUse" x="0" y="0" width="230" height="31">
<rect width="230" height="30.9688" fill="#D9D9D9"/>
</mask>
<g mask="url(#mask0_1842_8185)">
<path d="M30.476 -0.140471L4.53125 -27.2383H28.7463L55.2676 -0.140471L28.7463 26.9573H4.53125L30.476 -0.140471Z" fill="#222222"/>
<path d="M71.9916 -0.140471L46.0469 -27.2383H70.2619L96.7832 -0.140471L70.2619 26.9573H46.0469L71.9916 -0.140471Z" fill="#222222"/>
<path d="M113.499 -0.140471L87.5547 -27.2383H111.77L138.291 -0.140471L111.77 26.9573H87.5547L113.499 -0.140471Z" fill="#222222"/>
<path d="M155.015 -0.140471L129.07 -27.2383H153.285L179.807 -0.140471L153.285 26.9573H129.07L155.015 -0.140471Z" fill="#222222"/>
<path d="M196.531 -0.140471L170.586 -27.2383H194.801L221.322 -0.140471L194.801 26.9573H170.586L196.531 -0.140471Z" fill="#222222"/>
</g>
</svg>
