<svg width="230" height="32" viewBox="0 0 230 32" fill="none" xmlns="http://www.w3.org/2000/svg">
<mask id="mask0_1842_8176" style="mask-type:alpha" maskUnits="userSpaceOnUse" x="0" y="0" width="230" height="32">
<rect y="0.464844" width="230" height="30.9688" fill="#D9D9D9"/>
</mask>
<g mask="url(#mask0_1842_8176)">
<path d="M30.476 31.2892L4.53125 4.19141H28.7463L55.2676 31.2892L28.7463 58.387H4.53125L30.476 31.2892Z" fill="#F8F8F8"/>
<path d="M71.9838 31.2892L46.0391 4.19141H70.2541L96.7754 31.2892L70.2541 58.387H46.0391L71.9838 31.2892Z" fill="#F8F8F8"/>
<path d="M113.499 31.2892L87.5547 4.19141H111.77L138.291 31.2892L111.77 58.387H87.5547L113.499 31.2892Z" fill="#F8F8F8"/>
<path d="M155.007 31.2892L129.062 4.19141H153.278L179.799 31.2892L153.278 58.387H129.062L155.007 31.2892Z" fill="#F8F8F8"/>
<path d="M196.515 31.2892L170.57 4.19141H194.785L221.307 31.2892L194.785 58.387H170.57L196.515 31.2892Z" fill="#F8F8F8"/>
</g>
</svg>
