<svg width="82" height="11" viewBox="0 0 82 11" fill="none" xmlns="http://www.w3.org/2000/svg">
<path d="M9.81352 10.563L0 0H9.15928L19.1909 10.563L9.15928 21.1261H0L9.81352 10.563Z" fill="#6329A8" fill-opacity="0.2"/>
<path d="M25.5166 10.563L15.7031 0H24.8624L34.894 10.563L24.8624 21.1261H15.7031L25.5166 10.563Z" fill="#6329A8" fill-opacity="0.2"/>
<path d="M41.2198 10.563L31.4062 0H40.5655L50.5971 10.563L40.5655 21.1261H31.4062L41.2198 10.563Z" fill="#6329A8" fill-opacity="0.2"/>
<path d="M56.9229 10.563L47.1094 0H56.2687L66.3003 10.563L56.2687 21.1261H47.1094L56.9229 10.563Z" fill="#6329A8" fill-opacity="0.2"/>
<path d="M72.6182 10.563L62.8047 0H71.964L81.9956 10.563L71.964 21.1261H62.8047L72.6182 10.563Z" fill="#6329A8" fill-opacity="0.2"/>
</svg>
