<svg width="202" height="82" viewBox="0 0 202 82" fill="none" xmlns="http://www.w3.org/2000/svg">
<path d="M5.43679 10.9971H21.9403L25.3937 16.8961H16.8148L12.8525 35.5402L5.54584 40.274L10.4896 16.8961H4.20085L5.43679 10.9971Z" fill="url(#paint0_linear_1845_8470)"/>
<path d="M30.4017 11.0335H46.7235C48.129 11.0335 48.9651 11.7496 49.2317 13.1819L47.6322 20.8289L43.5245 23.5235L46.6144 25.5991L44.2879 36.4869H32.5828L33.7824 30.8063H39.2351L40.1075 26.8008L33.8551 24.179L31.2741 36.3049L24.2219 40.1283L30.4017 11.0335ZM35.4545 16.6777L34.1822 22.686L41.6706 19.3723L42.2522 16.6777H35.4545Z" fill="url(#paint1_linear_1845_8470)"/>
<path d="M57.4457 10.9971H76.1303L71.4046 33.2825C70.5807 35.2731 69.4053 36.2684 67.8785 36.2684H58.9725L49.9937 24.361H52.5746L54.8284 13.6553C55.0707 12.5386 55.9432 11.6525 57.4457 10.9971ZM61.3353 16.9326L59.7722 24.361H62.0623L55.3373 30.0416H65.1885L67.9513 16.9326H61.3353Z" fill="url(#paint2_linear_1845_8470)"/>
<path d="M96.6228 0L95.3869 5.71702L86.2263 11.2155L87.3896 5.78984L96.6228 0ZM86.19 11.3612L82.773 27.5655L75.5027 31.4982L78.7743 16.0586L86.19 11.3612ZM100.294 7.35565L94.3327 35.5037H86.0809L86.6262 32.8091L73.9396 38.8538L75.2119 32.8091L90.225 24.7616L92.9877 11.7253L100.294 7.35565Z" fill="url(#paint3_linear_1845_8470)"/>
<path d="M113.242 11.2155H132.581L126.11 41.8034L120.221 35.7951L124.293 16.532H119.276L115.205 35.7951H108.043L113.242 11.2155Z" fill="url(#paint4_linear_1845_8470)"/>
<path d="M148.943 10.9971H155.668L149.343 40.8566L143.672 36.1956L147.344 18.9353L140.074 23.2322L137.238 36.5233H130.877L134.403 19.9913L148.943 10.9971Z" fill="url(#paint5_linear_1845_8470)"/>
<path d="M159.09 11.0335H176.502C177.908 11.4462 178.392 12.5022 177.956 14.2015L173.231 36.4869H166.833L169.305 24.798L161.853 28.2209L159.344 40.0555L153.71 36.4141L156.073 25.235L170.722 18.1342L171.086 16.3499H164.361L163.452 20.574L156.327 24.0697L159.09 11.0335Z" fill="url(#paint6_linear_1845_8470)"/>
<path d="M181.85 10.9971H187.957L185.849 20.9017L178.906 24.7616L181.85 10.9971ZM194.682 10.9971H201.08L195.773 35.9407H189.375L191.665 25.0529L184.068 29.2405L181.705 40.4197L176.47 36.2684L178.651 26.0361L193.156 18.1342L194.682 10.9971Z" fill="url(#paint7_linear_1845_8470)"/>
<path d="M6.22062 47.9801H13.2819L10.8441 59.4324L2.81608 63.8954L6.22062 47.9801ZM21.0577 47.9801H28.4552L22.3186 76.8212H14.9211L17.5691 64.2322L8.78452 69.0741L6.05249 82L-6.72105e-06 77.2002L2.52187 65.369L19.2924 56.2325L21.0577 47.9801Z" fill="url(#paint8_linear_1845_8470)"/>
<path d="M32.7056 48.0222H52.8386C54.4638 48.4994 55.0242 49.7204 54.5198 51.6853L49.0558 77.4528H41.6583L44.5164 63.9375L35.9 67.8952L32.9998 81.579L26.485 77.3686L29.217 64.4427L46.1556 56.2325L46.5759 54.1694H38.8001L37.7494 59.0534L29.5112 63.0954L32.7056 48.0222Z" fill="url(#paint9_linear_1845_8470)"/>
<path d="M71.5497 47.9801H91.1784C92.8596 47.9801 93.6442 49.2853 93.5321 51.8958L91.7668 60.0639H84.1591L85.294 54.7167H77.3921L73.9455 71.053H85.0418L77.8965 77.7896H68.1032C66.506 77.7896 65.8055 76.6107 66.0016 74.2529L71.5497 47.9801Z" fill="url(#paint10_linear_1845_8470)"/>
<path d="M97.7405 47.9801H114.175L118.924 54.6746H104.171L103.499 57.8324H108.669L113.04 64.5269H102.07L100.809 70.5057H109.047L113.796 77.2002H91.5199L97.7405 47.9801Z" fill="url(#paint11_linear_1845_8470)"/>
<path d="M127.98 47.9801H140.968C144.554 47.9801 146.11 49.1169 145.633 51.3905L143.826 59.9376L140.295 63.0112L142.607 65.7058L140.8 74.2529C140.351 76.302 138.81 77.3265 136.176 77.3265H117.094L122.222 70.1688H134.075L134.957 66.0848L129.493 63.0112L136.386 59.2218L137.353 54.843H122.264L127.98 47.9801Z" fill="url(#paint12_linear_1845_8470)"/>
<path d="M155.053 47.9801H176.658L171.193 73.7477C170.241 76.0493 168.882 77.2002 167.116 77.2002H156.819L146.437 63.4322H149.421L152.027 51.0537C152.307 49.7625 153.316 48.738 155.053 47.9801ZM159.551 54.843L157.743 63.4322H160.391L152.616 70.0004H164.006L167.2 54.843H159.551Z" fill="url(#paint13_linear_1845_8470)"/>
<path d="M180.765 47.9801H187.827L185.389 59.4324L177.361 63.8954L180.765 47.9801ZM195.602 47.9801H203L196.863 76.8212H189.466L192.114 64.2322L183.329 69.0741L180.597 82L174.545 77.2002L177.067 65.369L193.837 56.2325L195.602 47.9801Z" fill="url(#paint14_linear_1845_8470)"/>
<defs>
<linearGradient id="paint0_linear_1845_8470" x1="174.251" y1="41" x2="-97.3931" y2="41.0071" gradientUnits="userSpaceOnUse">
<stop stop-color="#271042"/>
<stop offset="1" stop-color="#6329A8"/>
</linearGradient>
<linearGradient id="paint1_linear_1845_8470" x1="174.251" y1="41" x2="-97.3931" y2="41.0071" gradientUnits="userSpaceOnUse">
<stop stop-color="#271042"/>
<stop offset="1" stop-color="#6329A8"/>
</linearGradient>
<linearGradient id="paint2_linear_1845_8470" x1="174.251" y1="41" x2="-97.3931" y2="41.0071" gradientUnits="userSpaceOnUse">
<stop stop-color="#271042"/>
<stop offset="1" stop-color="#6329A8"/>
</linearGradient>
<linearGradient id="paint3_linear_1845_8470" x1="174.251" y1="41" x2="-97.3931" y2="41.0071" gradientUnits="userSpaceOnUse">
<stop stop-color="#271042"/>
<stop offset="1" stop-color="#6329A8"/>
</linearGradient>
<linearGradient id="paint4_linear_1845_8470" x1="174.251" y1="41" x2="-97.3931" y2="41.0071" gradientUnits="userSpaceOnUse">
<stop stop-color="#271042"/>
<stop offset="1" stop-color="#6329A8"/>
</linearGradient>
<linearGradient id="paint5_linear_1845_8470" x1="174.251" y1="41" x2="-97.3931" y2="41.0071" gradientUnits="userSpaceOnUse">
<stop stop-color="#271042"/>
<stop offset="1" stop-color="#6329A8"/>
</linearGradient>
<linearGradient id="paint6_linear_1845_8470" x1="174.251" y1="41" x2="-97.3931" y2="41.0071" gradientUnits="userSpaceOnUse">
<stop stop-color="#271042"/>
<stop offset="1" stop-color="#6329A8"/>
</linearGradient>
<linearGradient id="paint7_linear_1845_8470" x1="174.251" y1="41" x2="-97.3931" y2="41.0071" gradientUnits="userSpaceOnUse">
<stop stop-color="#271042"/>
<stop offset="1" stop-color="#6329A8"/>
</linearGradient>
<linearGradient id="paint8_linear_1845_8470" x1="174.251" y1="41" x2="-97.3931" y2="41.0071" gradientUnits="userSpaceOnUse">
<stop stop-color="#271042"/>
<stop offset="1" stop-color="#6329A8"/>
</linearGradient>
<linearGradient id="paint9_linear_1845_8470" x1="174.251" y1="41" x2="-97.3931" y2="41.0071" gradientUnits="userSpaceOnUse">
<stop stop-color="#271042"/>
<stop offset="1" stop-color="#6329A8"/>
</linearGradient>
<linearGradient id="paint10_linear_1845_8470" x1="174.251" y1="41" x2="-97.3931" y2="41.0071" gradientUnits="userSpaceOnUse">
<stop stop-color="#271042"/>
<stop offset="1" stop-color="#6329A8"/>
</linearGradient>
<linearGradient id="paint11_linear_1845_8470" x1="174.251" y1="41" x2="-97.3931" y2="41.0071" gradientUnits="userSpaceOnUse">
<stop stop-color="#271042"/>
<stop offset="1" stop-color="#6329A8"/>
</linearGradient>
<linearGradient id="paint12_linear_1845_8470" x1="174.251" y1="41" x2="-97.3931" y2="41.0071" gradientUnits="userSpaceOnUse">
<stop stop-color="#271042"/>
<stop offset="1" stop-color="#6329A8"/>
</linearGradient>
<linearGradient id="paint13_linear_1845_8470" x1="174.251" y1="41" x2="-97.3931" y2="41.0071" gradientUnits="userSpaceOnUse">
<stop stop-color="#271042"/>
<stop offset="1" stop-color="#6329A8"/>
</linearGradient>
<linearGradient id="paint14_linear_1845_8470" x1="174.251" y1="41" x2="-97.3931" y2="41.0071" gradientUnits="userSpaceOnUse">
<stop stop-color="#271042"/>
<stop offset="1" stop-color="#6329A8"/>
</linearGradient>
</defs>
</svg>
