<svg width="148" height="70" viewBox="0 0 148 70" fill="none" xmlns="http://www.w3.org/2000/svg">
<path d="M44.5241 9.39844L40.7396 19.5654L40.3529 20.6044L40.1117 21.2516L38.7247 24.9781L37.3519 28.6639L36.9682 29.6948L36.724 30.3511L34.9564 35.1004H26.6516L28.4192 30.3511L29.0471 28.6639H10.6097L9.98086 30.3511L8.21324 35.1004L7.58537 36.7865L5.20515 43.1812L1.20792 36.7865L0.153661 35.1004L0 34.8541L1.67603 30.3511L2.3039 28.6639L5.0637 21.2516L5.69055 19.5654L8.40354 12.2773L6.60438 9.39844H17.7809L13.9964 19.5654L13.6097 20.6034L13.3685 21.2516H31.6898L31.7631 21.3676L31.8058 21.2516L32.4337 19.5654L33.5185 16.651L35.1467 12.2773L33.3475 9.39844H44.5241Z" fill="white"/>
<path d="M45.4345 43.2385H9.88281L12.2834 36.7909L12.9113 35.1047L14.6789 30.3555H22.9837L21.7605 33.6424L21.2161 35.1047L20.5882 36.7909H38.5472L39.1751 35.1047L39.6137 33.9273L40.3495 35.1047L41.4037 36.7909L45.4345 43.2385Z" fill="white"/>
<path d="M31.2966 44.9258L30.3675 47.422L21.963 69.9998L16.7578 61.6727L22.9918 44.9258H31.2966Z" fill="white"/>
<path d="M34.2775 0L31.7345 6.83024L30.7769 9.40277L30.1063 11.205L28.3509 15.9216L26.9923 19.5698H18.6875L22.472 9.40277L23.1447 7.59548L24.9011 2.87782L23.102 0H34.2775Z" fill="white"/>
<path d="M147.791 13.0448L147.736 13.1954L147.096 14.9131L146.432 16.698L145.15 20.1416L143.933 23.4102L142.528 27.1855H135.948L137.353 23.4102L138.569 20.1416H138.578L139.86 16.698H139.852L140.516 14.9131L141.156 13.1954H134.575L133.936 14.9131L133.271 16.698H138.27L136.988 20.1416H131.989L130.772 23.4102L129.367 27.1855H122.789L124.194 23.4102L125.413 20.1416L126.694 16.698L127.358 14.9131L127.997 13.1954L128.774 11.1082L127.632 9.42H129.403L129.404 9.41797H145.34L147.791 13.0448Z" fill="white"/>
<path d="M125.2 9.41797L123.794 13.1943L122.491 16.698L121.209 20.1416L119.993 23.4102L118.587 27.1855H112.04L113.445 23.4102L114.661 20.1416L115.944 16.698L116.011 16.5128L115.867 16.698L113.161 20.1416L112.076 21.5245L110.595 23.4102L109.984 24.1876L110.003 23.4102L110.084 20.1416L110.132 18.199L111.236 16.698L113.806 13.1943L116.578 9.41797H125.2Z" fill="white"/>
<path d="M62.9427 16.698L61.6605 20.1416H56.6711C56.2651 21.2315 55.8591 22.3203 55.454 23.4102L54.0487 27.1855H47.4688L53.4524 11.1092L52.3106 9.41797H60.6633L59.2559 13.1954L57.9533 16.698H62.9427Z" fill="white"/>
<path d="M73.8263 9.41797L72.421 13.1954L71.1174 16.698L69.8352 20.1416L68.6191 23.4102L67.2138 27.1855H60.6328L60.8078 26.7164L62.0382 23.4102L64.5364 16.698L66.1738 12.2999L67.2464 9.41797H73.8263Z" fill="white"/>
<path d="M95.7821 9.41797L94.3767 13.1943L94.3757 13.1974L93.756 14.8602L92.6325 13.1974L92.6315 13.1943H83.1798L82.5387 14.9131L81.8752 16.698H91.5508L86.2754 20.1416H80.593L79.3769 23.4102H88.8469L91.1285 21.9194L90.5739 23.4102L90.3245 24.0788L90.3195 24.094L89.1441 27.1855H71.3906L72.796 23.4102L74.012 20.1416L75.2942 16.698L75.9587 14.9131L76.5988 13.1943L77.3753 11.1052L76.2355 9.41899H78.0042V9.41797H95.7821Z" fill="white"/>
<path d="M108.626 9.41797L108.533 13.1943L108.445 16.698L108.359 20.1416L108.277 23.4102L108.184 27.1855H104.284L104.379 23.4102L104.449 20.6056L104.459 20.1416L104.547 16.698L104.597 14.6414L103.832 16.698L102.55 20.1416L101.334 23.4102L99.9288 27.1855H93.3672L94.7715 23.4102L95.9886 20.1416L97.2708 16.698L98.5734 13.1943L99.3529 11.1021L98.2152 9.41899H99.9787L99.9797 9.41797H108.626Z" fill="white"/>
<path d="M59.6103 31.8164L56.2603 40.8131L55.3525 43.2524H51.1172L54.9699 32.9022L54.2362 31.8164H59.6103Z" fill="white"/>
<path d="M63.3126 39.7539L63.3055 39.7722L62.9168 40.8163L62.9076 40.8407L62.0091 43.2555H56.4844L57.3931 40.8163H61.6855L63.3126 39.7539Z" fill="white"/>
<path d="M110.375 34.1396L110.335 34.2495L109.924 35.3547H105.686L106.098 34.2495H101.862L101.025 36.5015L100.199 38.7189H100.198L99.4197 40.8131H103.655L104.434 38.7189H101.267L104.663 36.5015H109.497L108.671 38.7189L107.892 40.8131L107.811 41.0309L104.767 43.2524H96.7108L95.1406 40.9312L95.1844 40.8131L95.9639 38.7189L96.7892 36.5015L97.6277 34.2495L98.1304 32.9012L98.1284 32.9002L97.3957 31.8164H108.805L110.375 34.1396Z" fill="white"/>
<path d="M94.9609 34.1508L94.9253 34.2475L94.5132 35.3536L94.0858 36.5025L93.2605 38.7189L92.4769 40.8223L91.5732 43.2524H87.3369L88.2415 40.8223L88.9569 38.901L89.0251 38.7189L89.8494 36.5025L89.8647 36.4618L90.2778 35.3536L90.6889 34.2475H86.4536L86.0425 35.3536L85.614 36.5025H88.7239L87.8996 38.7189H84.7887L84.0062 40.8223L83.1015 43.2524H78.8672L79.7719 40.8223L80.5554 38.7189L81.3807 36.5025L81.8081 35.3536L82.2203 34.2475L82.7199 32.9042L81.9842 31.8174H83.1239L83.1249 31.8164H93.3816L94.9609 34.1508Z" fill="white"/>
<path d="M80.5124 31.8164L79.6077 34.2475L79.6067 34.2485L79.2078 35.319L78.4853 34.2485L78.4843 34.2475H72.3999L71.9878 35.3526L71.5604 36.5015H77.7882L74.3934 38.7189H70.7351L69.9525 40.8223H76.0481L77.5165 39.8627L77.1603 40.8223L76.9996 41.2528L76.9955 41.2619L76.2394 43.2524H64.8125L65.7172 40.8223L66.4997 38.7189L67.325 36.5015L67.7524 35.3526L68.1646 34.2475L68.6642 32.9022L67.9315 31.8174H69.0692V31.8164H80.5124Z" fill="white"/>
<path d="M140.809 31.8164L139.905 34.2475L139.904 34.2485L139.505 35.319L138.782 34.2485L138.781 34.2475H132.697L132.285 35.3526L131.857 36.5015H138.085L134.69 38.7189H131.033L130.249 40.8223H136.345L137.813 39.8627L137.457 40.8223L137.296 41.2528L137.292 41.2619L136.536 43.2524H125.109L126.014 40.8223L126.797 38.7189L127.622 36.5015L128.049 35.3526L128.461 34.2475L128.962 32.9022L128.228 31.8174H129.366V31.8164H140.809Z" fill="white"/>
<path d="M126.652 31.8164L123.697 39.7548H119.461L119.847 38.7199L120.672 36.5015L121.509 34.2495H121.51L122.416 31.8164H126.652Z" fill="white"/>
<path d="M123.302 40.8121L123.221 41.0268L120.173 43.2524H112.115L110.547 40.9322L110.592 40.8131L111.37 38.7199L112.195 36.5015L113.034 34.2495L113.536 32.9032L112.801 31.8164H118.177L117.271 34.2495L116.434 36.5015H116.433L115.608 38.7199L114.828 40.8131H119.064V40.8121H123.302Z" fill="white"/>
</svg>
