<svg width="12" height="12" viewBox="0 0 12 12" fill="none" xmlns="http://www.w3.org/2000/svg">
<path d="M10.2568 2.60547L11.3086 7.21094L8.36133 10.9062H3.63867L0.69043 7.21094L1.74219 2.60547L6 0.553711L10.2568 2.60547Z" fill="#291146" fill-opacity="0.8"/>
<path d="M10.2568 2.60547L11.3086 7.21094L8.36133 10.9062H3.63867L0.69043 7.21094L1.74219 2.60547L6 0.553711L10.2568 2.60547Z" stroke="#431C72"/>
<path d="M10.2568 2.60547L11.3086 7.21094L8.36133 10.9062H3.63867L0.69043 7.21094L1.74219 2.60547L6 0.553711L10.2568 2.60547Z" stroke="#F8F8F8"/>
<path d="M5.19172 8.66536L3.83662 7.66429L4.8543 6.42157L3.33594 6.01308L3.85839 4.33886L5.30601 4.97748L5.15907 3.33203H6.84614L6.6992 4.97173L8.14682 4.33886L8.66927 6.01308L7.1509 6.41581L8.17403 7.66429L6.8026 8.66536L5.99716 7.24429L5.19172 8.66536Z" fill="#F8F8F8"/>
</svg>
